<svg xmlns="http://www.w3.org/2000/svg" xmlns:xlink="http://www.w3.org/1999/xlink" version="1.1" x="0px" y="0px" viewBox="0 0 96 120" enable-background="new 0 0 96 96" xml:space="preserve"><g><path d="M61.162,21.151l-7.527,7.524L72.959,48L53.635,67.324l7.527,7.525l25.814-25.814L88,47.99L61.162,21.151z M83.939,48.044   L61.162,70.822l-3.499-3.498L76.987,48L57.663,28.676l3.499-3.498l22.803,22.804l-0.044,0.045L83.939,48.044z"/><path d="M65.183,47.991l-26.837-26.84l-7.527,7.524L50.141,48L30.816,67.324l7.527,7.525l25.814-25.814L65.183,47.991z    M61.12,48.044L38.346,70.821l-3.5-3.499L54.167,48L34.846,28.676l3.5-3.498l22.801,22.804l-0.044,0.045L61.12,48.044z"/><path d="M42.355,47.981L15.527,21.151L8,28.676L27.323,48L8,67.324l7.527,7.525L41.34,49.035L42.355,47.981z M38.311,48.038   L15.527,70.824l-3.498-3.499L31.352,48L12.027,28.676l3.5-3.498l22.81,22.813l-0.035,0.037L38.311,48.038z"/></g><text x="0" y="111" fill="#000000" font-size="5px" font-weight="bold" font-family="'Helvetica Neue', Helvetica, Arial-Unicode, Arial, Sans-serif">Created by fahmionline</text><text x="0" y="116" fill="#000000" font-size="5px" font-weight="bold" font-family="'Helvetica Neue', Helvetica, Arial-Unicode, Arial, Sans-serif">from the Noun Project</text></svg>